<?xml version="1.0" encoding="utf-8"?>
<!-- Generator: Adobe Illustrator 28.2.0, SVG Export Plug-In . SVG Version: 6.00 Build 0)  -->
<svg version="1.1" id="Layer_1" xmlns="http://www.w3.org/2000/svg" xmlns:xlink="http://www.w3.org/1999/xlink" x="0px" y="0px"
	 viewBox="0 0 800 188" style="enable-background:new 0 0 800 188;" xml:space="preserve">
<g>
	<path d="M0.2,184.8h31.4v-81.6c0-16.1,10.6-27.8,25.7-27.8c14.6,0,23.7,9.2,23.7,24v85.4h30.5v-82.4c0-16,10.3-27,25.4-27
		c15.4,0,23.9,9.3,23.9,25.7v83.8h31.4V93.3c0-26.7-17.3-44.4-43.6-44.4c-19.3,0-35.1,10.3-41.6,26.8h-0.8
		C101.3,58.6,87.8,49,68.9,49c-18.1,0-32.3,10.2-38,25.7h-0.6V51.5H0.2V184.8L0.2,184.8z M260.8,163.3c-13.6,0-22.7-6.9-22.7-17.9
		c0-10.6,8.7-17.4,23.8-18.4l30.9-1.9v10.2C292.8,151.4,278.6,163.3,260.8,163.3L260.8,163.3z M251.4,186.9
		c17.1,0,33.9-8.9,41.6-23.4h0.6v21.3h30.2V93c0-26.8-21.5-44.3-54.7-44.3c-34,0-55.3,17.9-56.7,42.8h29.1
		c2-11.1,11.5-18.2,26.3-18.2c15.5,0,24.9,8,24.9,22v9.6l-35.3,2c-32.5,2-50.8,16.2-50.8,39.9C206.8,170.7,225.5,186.9,251.4,186.9
		L251.4,186.9z M461.5,99c-2.1-28-23.9-50.3-59.2-50.3c-38.8,0-64,26.8-64,69.4c0,43.3,25.2,69.3,64.3,69.3
		c33.5,0,56.6-19.6,59.1-49.4H432c-2.9,15.1-13.2,24.1-29.1,24.1c-19.9,0-32.8-16.1-32.8-44c0-27.4,12.7-44,32.5-44
		c16.8,0,26.7,10.7,29.2,24.9L461.5,99L461.5,99z M558.4,0.3c-53,0-86.3,36.1-86.3,93.8s33.3,93.7,86.3,93.7
		c52.9,0,86.2-36,86.2-93.7S611.3,0.3,558.4,0.3z M558.4,28c32.4,0,53,25.7,53,66.1c0,40.4-20.7,66-53,66c-32.5,0-53-25.7-53-66
		C505.4,53.6,525.9,28,558.4,28z M657.8,133.7c1.4,33.5,28.8,54.1,70.7,54.1c44,0,71.7-21.6,71.7-56.1c0-27-15.6-42.3-52.5-50.7
		l-20.9-4.8c-22.3-5.3-31.5-12.3-31.5-24.4c0-15.1,13.9-25.2,34.4-25.2c20.8,0,35,10.2,36.5,27.2h31c-0.8-31.9-27.2-53.6-67.3-53.6
		c-39.6,0-67.7,21.8-67.7,53.9c0,25.9,15.9,42,49.4,49.7l23.6,5.5c22.9,5.4,32.3,13,32.3,26c0,15.1-15.2,25.9-37.2,25.9
		c-22.2,0-38.9-10.9-40.9-27.7L657.8,133.7L657.8,133.7z"/>
</g>
</svg>
