<?xml version="1.0" encoding="utf-8"?>
<!-- Generator: Adobe Illustrator 28.2.0, SVG Export Plug-In . SVG Version: 6.00 Build 0)  -->
<svg version="1.1" id="Layer_1" xmlns="http://www.w3.org/2000/svg" xmlns:xlink="http://www.w3.org/1999/xlink" x="0px" y="0px"
	 viewBox="0 0 924 206" style="enable-background:new 0 0 924 206;" xml:space="preserve">
<style type="text/css">
	.st0{fill:#0078D6;}
</style>
<path class="st0" d="M420.1,44.3l-33.7,117.4H370l-24.6-85.8c-1.1-3.7-1.7-7.6-1.9-12h-0.3c-0.3,4-1,7.9-2.2,11.8l-24.7,86h-16.2
	l-35-117.4h15.4l25.4,90.1c1.1,3.9,1.7,7.8,2,11.8h0.4c0.3-2.9,1.1-6.8,2.6-11.8l26.4-90.1h13.4l25.3,90.7c0.9,3.1,1.6,6.8,2,11h0.3
	c0.2-2.8,1-6.6,2.3-11.3L405,44.3L420.1,44.3L420.1,44.3z M438.9,56.6c-2.4,0-4.5-0.8-6.2-2.5c-1.7-1.6-2.6-3.7-2.6-6.2
	c0-2.5,0.9-4.6,2.6-6.3c1.7-1.7,3.8-2.5,6.2-2.5c2.5,0,4.6,0.8,6.4,2.5c1.7,1.7,2.6,3.8,2.6,6.3c0,2.4-0.9,4.5-2.6,6.1
	C443.6,55.8,441.4,56.6,438.9,56.6z M445.6,161.8h-13.7V77.9h13.7V161.8z M537.3,161.8h-13.7v-47.8c0-17.8-6.6-26.7-19.8-26.7
	c-6.8,0-12.5,2.5-16.9,7.6c-4.5,5.1-6.7,11.4-6.7,19.1v47.8h-13.7V77.9h13.7v13.9h0.3c6.4-10.6,15.8-15.9,28-15.9
	c9.3,0,16.5,3,21.4,8.9c4.9,5.9,7.4,14.5,7.4,25.7L537.3,161.8L537.3,161.8L537.3,161.8z M634.4,161.8h-13.7v-14.3h-0.3
	c-6.3,10.8-16.1,16.2-29.3,16.2c-10.7,0-19.3-3.8-25.7-11.3c-6.4-7.5-9.6-17.7-9.6-30.7c0-13.9,3.5-25,10.7-33.3
	c7.1-8.4,16.6-12.5,28.4-12.5c11.7,0,20.2,4.5,25.5,13.6h0.3V37.6h13.7L634.4,161.8z M620.8,123.8v-12.4c0-6.8-2.3-12.5-6.8-17.2
	c-4.6-4.7-10.3-7-17.3-7c-8.3,0-14.9,3-19.6,9c-4.8,6-7.2,14.3-7.2,24.9c0,9.7,2.3,17.3,6.9,22.9c4.6,5.6,10.7,8.4,18.4,8.4
	c7.6,0,13.8-2.7,18.5-8.1C618.4,138.9,620.8,132.1,620.8,123.8L620.8,123.8z M694.1,163.7c-12.6,0-22.7-3.9-30.2-11.7
	c-7.5-7.8-11.3-18.2-11.3-31.2c0-14.1,3.9-25.1,11.7-33c7.8-7.9,18.4-11.9,31.7-11.9c12.7,0,22.6,3.8,29.8,11.5
	c7.1,7.7,10.7,18.4,10.7,32c0,13.4-3.8,24.1-11.5,32.1C717.3,159.7,707,163.7,694.1,163.7z M695.1,87.2c-8.8,0-15.7,2.9-20.8,8.8
	c-5.1,5.9-7.7,14-7.7,24.3c0,9.9,2.6,17.8,7.7,23.5c5.2,5.7,12.1,8.6,20.7,8.6c8.8,0,15.6-2.8,20.4-8.4c4.7-5.6,7.1-13.6,7.1-24
	c0-10.5-2.4-18.6-7.1-24.2C710.7,90.1,703.9,87.2,695.1,87.2L695.1,87.2z M859.6,77.9L834,161.8h-14.2l-17.6-60
	c-0.7-2.3-1.1-4.9-1.3-7.8h-0.3c-0.2,2-0.7,4.5-1.7,7.6l-19.1,60.2h-13.7l-25.8-83.9h14.3l17.6,63c0.6,1.9,0.9,4.4,1.2,7.5h0.7
	c0.2-2.4,0.7-5,1.5-7.7l19.6-62.9h12.5l17.6,63.2c0.6,2,1,4.5,1.3,7.5h0.7c0.1-2.1,0.6-4.6,1.4-7.5l17.3-63.2L859.6,77.9z
	 M865.9,158.7v-14.4c7.4,5.4,15.6,8.1,24.6,8.1c12,0,18-3.9,18-11.8c0-2.2-0.5-4.1-1.5-5.7c-1-1.6-2.4-2.9-4.2-4.1
	c-1.7-1.2-3.8-2.3-6.2-3.2c-2.5-1-5.1-2-7.6-3c-3.8-1.5-7.1-3-9.9-4.5c-2.9-1.5-5.2-3.2-7.2-5.1c-1.9-1.8-3.4-4-4.3-6.4
	c-1-2.4-1.5-5.2-1.5-8.4c0-3.9,0.9-7.4,2.7-10.4c1.8-3,4.3-5.6,7.3-7.6c3.1-2,6.5-3.6,10.5-4.6c3.9-1,8-1.6,12.1-1.5
	c7.4,0,14,1.3,19.8,3.8v13.6c-6.3-4-13.5-6.1-21.6-6.1c-2.6,0-4.9,0.3-6.9,0.9c-2.1,0.6-3.8,1.4-5.3,2.4c-1.5,1-2.6,2.3-3.4,3.7
	c-0.8,1.5-1.2,3.1-1.2,4.8c0,2.2,0.4,4,1.2,5.5c0.8,1.5,2,2.8,3.5,3.9c1.6,1.1,3.4,2.2,5.7,3.1c2.2,0.9,4.7,1.9,7.6,3
	c3.8,1.4,7.2,2.9,10.1,4.4c3,1.5,5.5,3.2,7.7,5.1c2.1,1.8,3.7,4,4.9,6.5c1.1,2.5,1.7,5.4,1.7,8.8c0,4.2-0.9,7.8-2.8,10.8
	c-1.9,3.1-4.4,5.7-7.4,7.6c-3.1,2-6.7,3.5-10.7,4.5c-4,1-8.3,1.5-12.7,1.5C879.9,163.7,872.3,162.1,865.9,158.7L865.9,158.7z
	 M205.4,2L92.3,18.2v80.6h113.1L205.4,2z M2.2,31.2v67.7h82.1V19.4L2.2,31.2z M2.2,175.3l82.1,11.9v-80.5H2.2V175.3z M205.4,204.8
	v-98.1H92.3v81.7L205.4,204.8z"/>
</svg>
